<svg width="1440" height="1130" viewBox="0 0 1440 1130" fill="none" xmlns="http://www.w3.org/2000/svg">
<rect x="-223.473" y="568" width="479.739" height="479.739" rx="53" transform="rotate(-45 -223.473 568)" stroke="#9457E8" stroke-width="2"/>
<rect x="-135.137" y="568" width="479.739" height="479.739" rx="53" transform="rotate(-45 -135.137 568)" stroke="#9457E8" stroke-width="2"/>
<path d="M552.142 553.727C566.506 616.749 481.087 670.031 461.457 701.361C428.737 753.579 373.338 787.911 310.5 787.911C248.894 787.911 194.435 754.915 161.495 704.418C140.674 672.501 51.2905 607.038 51.2905 565.053C51.2905 513.515 96.8451 470.952 142.662 432.949C193.226 391.014 246.741 355.846 298.869 347.774C359.525 338.38 420.162 369.378 465.283 424.704C499.054 466.128 541.706 507.936 552.142 553.727Z" fill="url(#paint0_linear_496_3)"/>
<path d="M366.961 611.737C366.35 612.451 365.73 613.164 365.103 613.878C365.732 613.166 366.351 612.453 366.961 611.737Z" fill="#383866"/>
<path d="M368.257 610.193C368.404 610.017 368.545 609.843 368.698 609.667C368.554 609.843 368.404 610.017 368.257 610.193Z" fill="#383866"/>
<path d="M370.294 607.7L370.355 607.625L370.294 607.7Z" fill="#383866"/>
<path d="M366.961 611.737C367.028 611.656 367.097 611.578 367.166 611.5C367.094 611.575 367.031 611.656 366.961 611.737Z" fill="#383866"/>
<path d="M253.257 649.731L262.9 666.65L253.257 649.731Z" fill="#383866"/>
<path d="M395.74 454.588L395.821 454.571L395.76 454.551L395.74 454.588Z" fill="#8D89FF"/>
<path d="M395.293 454.403C395.581 454.519 395.74 454.588 395.74 454.588L395.76 454.551L395.293 454.403Z" fill="#8D89FF"/>
<path d="M93.4062 652.433H95.3683C95.4607 653.283 96.0493 653.691 96.8976 653.691C97.6564 653.691 98.1643 653.271 98.1787 652.667C98.1787 651.999 97.642 651.542 96.8052 651.542H95.9945V649.957H96.7014C97.5237 649.957 97.9046 649.537 97.9161 648.947C97.9277 648.357 97.4602 647.99 96.8572 647.99C96.0752 647.99 95.5501 648.528 95.5645 649.147H93.5909C93.5909 647.169 95.2385 646.029 96.8572 646.029C98.8452 646.029 99.9042 647.313 99.9042 648.768C99.9009 649.153 99.8126 649.533 99.6454 649.879C99.4783 650.226 99.2365 650.531 98.9376 650.772C99.3158 650.963 99.632 651.258 99.8492 651.622C100.066 651.986 100.175 652.405 100.164 652.829C100.164 654.466 98.8568 655.631 96.8976 655.631C95.1865 655.64 93.487 654.567 93.4062 652.433Z" fill="white"/>
<path d="M109.714 650.185C109.714 649.908 109.796 649.637 109.95 649.406C110.104 649.175 110.323 648.996 110.578 648.889C110.834 648.783 111.115 648.755 111.387 648.81C111.658 648.864 111.908 648.997 112.103 649.193C112.299 649.39 112.432 649.64 112.486 649.912C112.54 650.184 112.513 650.466 112.407 650.722C112.301 650.978 112.121 651.197 111.891 651.352C111.661 651.506 111.391 651.588 111.114 651.588C110.743 651.588 110.387 651.44 110.124 651.177C109.862 650.914 109.714 650.557 109.714 650.185ZM109.714 654.194C109.714 653.916 109.796 653.645 109.95 653.415C110.104 653.184 110.323 653.004 110.578 652.898C110.834 652.792 111.115 652.764 111.387 652.818C111.658 652.872 111.908 653.006 112.103 653.202C112.299 653.398 112.432 653.648 112.486 653.92C112.54 654.192 112.513 654.474 112.407 654.731C112.301 654.987 112.121 655.206 111.891 655.36C111.661 655.514 111.391 655.596 111.114 655.596C110.744 655.596 110.389 655.449 110.126 655.188C109.864 654.926 109.716 654.571 109.714 654.2V654.194Z" fill="white"/>
<path d="M222.005 638.892L211.725 637.908" stroke="#333333" stroke-width="2" stroke-miterlimit="10" stroke-linecap="round"/>
<path d="M393.674 638.871L398.761 638.4" stroke="#333333" stroke-width="2" stroke-miterlimit="10" stroke-linecap="round"/>
<path d="M154.368 331.077L107.607 300.8L120.393 297.619L130.287 282.264C131.628 280.183 133.365 278.388 135.399 276.98C137.432 275.571 139.723 274.579 142.139 274.058C144.556 273.537 147.051 273.499 149.483 273.945C151.914 274.39 154.234 275.312 156.31 276.656V276.656C160.503 279.372 163.449 283.646 164.499 288.538C165.549 293.43 164.617 298.54 161.908 302.743L152.014 318.095L154.368 331.077Z" fill="#8D89FF"/>
<path d="M149.48 273.929L153.292 268.015C153.795 267.196 154.457 266.486 155.238 265.927C156.019 265.368 156.904 264.971 157.84 264.759C158.776 264.546 159.745 264.524 160.69 264.691C161.635 264.859 162.537 265.214 163.343 265.736C164.149 266.258 164.844 266.935 165.385 267.729C165.927 268.524 166.305 269.418 166.498 270.36C166.69 271.303 166.693 272.274 166.507 273.218C166.32 274.161 165.947 275.058 165.41 275.855L161.599 281.77" fill="#8D89FF"/>
<path d="M134.672 327.237C133.346 329.294 131.259 330.738 128.871 331.253C126.483 331.768 123.988 331.31 121.936 329.981C119.884 328.653 118.442 326.561 117.929 324.167C117.415 321.773 117.872 319.272 119.198 317.216L134.672 327.237Z" fill="#8D89FF"/>
<path d="M145.44 266.849C149.058 266.849 152.599 267.898 155.635 269.872V269.872C157.711 271.216 159.503 272.957 160.908 274.995C162.313 277.033 163.304 279.329 163.823 281.751C164.343 284.174 164.382 286.675 163.937 289.112C163.493 291.549 162.573 293.874 161.232 295.956L151.338 311.31L153.693 324.304L106.932 294.027L119.717 290.845L129.605 275.482C131.312 272.83 133.656 270.65 136.422 269.142C139.187 267.634 142.286 266.845 145.435 266.849H145.44ZM145.435 266.271C142.189 266.262 138.993 267.072 136.142 268.627C133.291 270.181 130.876 272.431 129.121 275.167L119.351 290.327L106.785 293.465L105.495 293.789L106.612 294.512L153.378 324.79L154.498 325.513L154.261 324.2L151.953 311.431L161.723 296.271C163.614 293.335 164.681 289.943 164.812 286.451C164.943 282.959 164.133 279.496 162.467 276.426C160.801 273.356 158.34 270.793 155.344 269.006C152.348 267.219 148.927 266.274 145.44 266.271H145.435Z" fill="#333333"/>
<path d="M148.802 267.156L152.616 261.242C153.12 260.423 153.782 259.713 154.563 259.154C155.344 258.595 156.228 258.198 157.164 257.985C158.1 257.773 159.069 257.75 160.014 257.918C160.959 258.086 161.861 258.441 162.668 258.963C163.474 259.484 164.168 260.162 164.71 260.956C165.252 261.75 165.63 262.645 165.822 263.587C166.015 264.529 166.018 265.501 165.831 266.444C165.644 267.388 165.272 268.285 164.735 269.082L160.923 274.996" stroke="#333333" stroke-width="2" stroke-miterlimit="10"/>
<path d="M118.522 310.442L133.997 320.461C132.671 322.517 130.585 323.962 128.197 324.477C125.809 324.992 123.314 324.535 121.262 323.207C119.21 321.878 117.769 319.787 117.255 317.393C116.741 314.999 117.197 312.499 118.522 310.442V310.442ZM118.352 309.641L118.038 310.127C117.34 311.209 116.862 312.419 116.631 313.687C116.4 314.954 116.42 316.255 116.69 317.515C116.96 318.775 117.476 319.969 118.206 321.029C118.937 322.089 119.869 322.995 120.949 323.694C122.029 324.393 123.236 324.872 124.5 325.104C125.765 325.336 127.063 325.316 128.32 325.045C129.577 324.774 130.768 324.257 131.826 323.525C132.883 322.792 133.787 321.858 134.484 320.776L134.799 320.29L134.314 319.975L118.84 309.956L118.352 309.641V309.641Z" fill="#333333"/>
<path d="M409.039 243.647L369.406 287.182L392.85 308.624L432.482 265.089L409.039 243.647Z" fill="#8D89FF"/>
<path d="M407.069 237.672L430.513 259.117L390.877 302.649L367.433 281.207L407.069 237.672ZM407.035 236.868L406.645 237.296L367.009 280.828L366.619 281.253L367.046 281.643L390.487 303.089L390.911 303.476L391.301 303.051L430.937 259.507L431.327 259.079L430.903 258.689L407.459 237.247L407.035 236.868Z" fill="#333333"/>
<path d="M369.222 281.308L401.902 272.84L407.335 239.447" stroke="#333333" stroke-width="2" stroke-miterlimit="10"/>
<path d="M89.8691 426.738L31.0679 411.056L20.8181 449.667L79.6193 465.35L89.8691 426.738Z" fill="#8D89FF"/>
<path d="M26.7854 402.46L85.5868 418.141L75.3379 456.754L16.5365 441.073L26.7854 402.46ZM26.3757 401.754L26.2285 402.312L15.9796 440.925L15.8296 441.483L16.3894 441.631L75.1907 457.312L75.7476 457.462L75.8948 456.901L86.1437 418.291L86.2937 417.733L85.7339 417.583L26.9326 401.902L26.3757 401.754V401.754Z" fill="#333333"/>
<path d="M48.4837 423.454L57.313 431.262L45.7715 433.651L48.4809 423.442L48.4837 423.454ZM48.1635 422.389L47.924 423.295L45.2146 433.501L44.9751 434.406L45.8898 434.218L57.4313 431.829L58.5595 431.595L57.6939 430.829L48.8646 423.02L48.1548 422.401L48.1635 422.389Z" fill="#333333"/>
<path d="M51.0544 416.267C53.8342 416.265 56.5448 417.136 58.8057 418.757C61.0666 420.378 62.7643 422.668 63.6605 425.305C64.5566 427.943 64.6063 430.795 63.8024 433.462C62.9986 436.13 61.3816 438.478 59.1785 440.177C56.9754 441.876 54.2967 442.841 51.5186 442.936C48.7404 443.031 46.0022 442.252 43.6884 440.708C41.3746 439.164 39.6013 436.932 38.6175 434.326C37.6336 431.72 37.4887 428.871 38.2029 426.178C38.951 423.335 40.6179 420.82 42.9431 419.027C45.2683 417.233 48.1206 416.263 51.0544 416.267ZM51.0544 415.688C47.5264 415.687 44.1301 417.032 41.5548 419.449C38.9795 421.866 37.4181 425.175 37.1875 428.703C36.9568 432.232 38.0741 435.717 40.3128 438.45C42.5514 441.183 45.7436 442.96 49.2416 443.421C52.7396 443.881 56.2814 442.991 59.1483 440.93C62.0152 438.869 63.9924 435.791 64.6787 432.323C65.3649 428.854 64.7089 425.253 62.8437 422.252C60.9785 419.25 58.0438 417.072 54.6352 416.16C53.4625 415.846 52.2538 415.687 51.04 415.688H51.0544Z" fill="#333333"/>
<path d="M563.692 367.414C558.175 355.863 539.166 353.483 521.201 362.098C503.237 370.714 493.17 387.057 498.695 398.608C503.084 407.797 516.022 411.181 530.166 407.846L535.403 419.221L544.72 402.073C560.411 393.119 568.836 378.181 563.692 367.414Z" fill="#8D89FF"/>
<path d="M542.586 347.013C552.353 347.013 560.409 350.64 563.69 357.506C568.835 368.276 560.418 383.211 544.71 392.165L535.393 409.312L530.156 397.937C526.76 398.753 523.281 399.174 519.789 399.193C510.022 399.193 501.966 395.569 498.685 388.7C493.168 377.149 503.25 360.803 521.191 352.19C528.468 348.699 535.921 347.013 542.578 347.013H542.586ZM542.578 346.435C535.558 346.435 528.076 348.245 520.937 351.669C512.157 355.88 504.949 362.052 500.639 369.039C496.282 376.111 495.399 383.179 498.154 388.949C499.793 392.382 502.693 395.178 506.542 397.047C510.23 398.831 514.806 399.774 519.777 399.774C523.156 399.762 526.523 399.374 529.816 398.617L534.859 409.567L535.338 410.614L535.889 409.601L545.123 392.599C561.22 383.361 569.415 368.198 564.195 357.268C562.556 353.838 559.656 351.039 555.807 349.171C552.12 347.386 547.544 346.443 542.572 346.443L542.578 346.435Z" fill="#333333"/>
<path d="M511.379 374.479L545.357 358.174" stroke="#333333" stroke-width="2" stroke-miterlimit="10"/>
<path d="M514.619 381.267L548.6 364.962" stroke="#333333" stroke-width="2" stroke-miterlimit="10"/>
<path d="M517.862 388.052L551.841 371.746" stroke="#333333" stroke-width="2" stroke-miterlimit="10"/>
<path d="M203.5 248V200C203.5 172.386 225.886 150 253.5 150H1089C1116.61 150 1139 127.614 1139 100V1" stroke="#9457E8" stroke-width="2" stroke-linecap="round" stroke-linejoin="round"/>
<path d="M1202 1129V1082.19C1202 1054.58 1179.61 1032.19 1152 1032.19H264C236.386 1032.19 214 1009.8 214 982.19V885" stroke="#CBCAFF" stroke-width="2" stroke-linecap="round" stroke-linejoin="round" stroke-dasharray="25 25"/>
<path d="M518.5 1032.19H264C236.386 1032.19 214 1009.8 214 982.19V885" stroke="#9457E8" stroke-width="2" stroke-linecap="round" stroke-linejoin="round"/>
<path d="M1462.12 580.512C1490.17 588.043 1499.54 623.106 1479 643.627L1331.09 791.372C1310.54 811.893 1275.49 802.479 1267.99 774.428L1213.99 572.459C1206.49 544.408 1232.17 518.758 1260.22 526.289L1462.12 580.512Z" stroke="#6F15EA" stroke-opacity="0.1" stroke-width="30"/>
<defs>
<linearGradient id="paint0_linear_496_3" x1="306.14" y1="785.606" x2="298.89" y2="347.968" gradientUnits="userSpaceOnUse">
<stop stop-color="#6F15EA"/>
<stop offset="0.2" stop-color="#762FEF"/>
<stop offset="0.74" stop-color="#AA9EE9"/>
<stop offset="1" stop-color="#E8E8FF"/>
</linearGradient>
</defs>
</svg>
