<svg width="171" height="32" viewBox="0 0 171 32" fill="none" xmlns="http://www.w3.org/2000/svg">
<g clip-path="url(#clip0_1_31)">
<path d="M67.16 21.408C68.104 21.584 68.88 22.056 69.488 22.824C70.096 23.592 70.4 24.472 70.4 25.464C70.4 26.36 70.176 27.152 69.728 27.84C69.296 28.512 68.664 29.04 67.832 29.424C67 29.808 66.016 30 64.88 30H57.656V13.248H64.568C65.704 13.248 66.68 13.432 67.496 13.8C68.328 14.168 68.952 14.68 69.368 15.336C69.8 15.992 70.016 16.736 70.016 17.568C70.016 18.544 69.752 19.36 69.224 20.016C68.712 20.672 68.024 21.136 67.16 21.408ZM61.016 20.16H64.088C64.888 20.16 65.504 19.984 65.936 19.632C66.368 19.264 66.584 18.744 66.584 18.072C66.584 17.4 66.368 16.88 65.936 16.512C65.504 16.144 64.888 15.96 64.088 15.96H61.016V20.16ZM64.4 27.264C65.216 27.264 65.848 27.072 66.296 26.688C66.76 26.304 66.992 25.76 66.992 25.056C66.992 24.336 66.752 23.776 66.272 23.376C65.792 22.96 65.144 22.752 64.328 22.752H61.016V27.264H64.4ZM73.8939 23.304C73.8939 21.96 74.1579 20.768 74.6859 19.728C75.2299 18.688 75.9579 17.888 76.8699 17.328C77.7979 16.768 78.8299 16.488 79.9659 16.488C80.9579 16.488 81.8219 16.688 82.5579 17.088C83.3099 17.488 83.9099 17.992 84.3579 18.6V16.704H87.7419V30H84.3579V28.056C83.9259 28.68 83.3259 29.2 82.5579 29.616C81.8059 30.016 80.9339 30.216 79.9419 30.216C78.8219 30.216 77.7979 29.928 76.8699 29.352C75.9579 28.776 75.2299 27.968 74.6859 26.928C74.1579 25.872 73.8939 24.664 73.8939 23.304ZM84.3579 23.352C84.3579 22.536 84.1979 21.84 83.8779 21.264C83.5579 20.672 83.1259 20.224 82.5819 19.92C82.0379 19.6 81.4539 19.44 80.8299 19.44C80.2059 19.44 79.6299 19.592 79.1019 19.896C78.5739 20.2 78.1419 20.648 77.8059 21.24C77.4859 21.816 77.3259 22.504 77.3259 23.304C77.3259 24.104 77.4859 24.808 77.8059 25.416C78.1419 26.008 78.5739 26.464 79.1019 26.784C79.6459 27.104 80.2219 27.264 80.8299 27.264C81.4539 27.264 82.0379 27.112 82.5819 26.808C83.1259 26.488 83.5579 26.04 83.8779 25.464C84.1979 24.872 84.3579 24.168 84.3579 23.352ZM97.7915 30.216C96.7035 30.216 95.7275 30.024 94.8635 29.64C93.9995 29.24 93.3115 28.704 92.7995 28.032C92.3035 27.36 92.0315 26.616 91.9835 25.8H95.3675C95.4315 26.312 95.6795 26.736 96.1115 27.072C96.5595 27.408 97.1115 27.576 97.7675 27.576C98.4075 27.576 98.9035 27.448 99.2555 27.192C99.6235 26.936 99.8075 26.608 99.8075 26.208C99.8075 25.776 99.5835 25.456 99.1355 25.248C98.7035 25.024 98.0075 24.784 97.0475 24.528C96.0555 24.288 95.2395 24.04 94.5995 23.784C93.9755 23.528 93.4315 23.136 92.9675 22.608C92.5195 22.08 92.2955 21.368 92.2955 20.472C92.2955 19.736 92.5035 19.064 92.9195 18.456C93.3515 17.848 93.9595 17.368 94.7435 17.016C95.5435 16.664 96.4795 16.488 97.5515 16.488C99.1355 16.488 100.4 16.888 101.344 17.688C102.288 18.472 102.808 19.536 102.904 20.88H99.6875C99.6395 20.352 99.4155 19.936 99.0155 19.632C98.6315 19.312 98.1115 19.152 97.4555 19.152C96.8475 19.152 96.3755 19.264 96.0395 19.488C95.7195 19.712 95.5595 20.024 95.5595 20.424C95.5595 20.872 95.7835 21.216 96.2315 21.456C96.6795 21.68 97.3755 21.912 98.3195 22.152C99.2795 22.392 100.072 22.64 100.696 22.896C101.32 23.152 101.856 23.552 102.304 24.096C102.768 24.624 103.008 25.328 103.024 26.208C103.024 26.976 102.808 27.664 102.376 28.272C101.96 28.88 101.352 29.36 100.552 29.712C99.7675 30.048 98.8475 30.216 97.7915 30.216ZM109.166 15.12C108.574 15.12 108.078 14.936 107.678 14.568C107.294 14.184 107.102 13.712 107.102 13.152C107.102 12.592 107.294 12.128 107.678 11.76C108.078 11.376 108.574 11.184 109.166 11.184C109.758 11.184 110.246 11.376 110.63 11.76C111.03 12.128 111.23 12.592 111.23 13.152C111.23 13.712 111.03 14.184 110.63 14.568C110.246 14.936 109.758 15.12 109.166 15.12ZM110.822 16.704V30H107.462V16.704H110.822ZM120.909 30.216C119.821 30.216 118.845 30.024 117.981 29.64C117.117 29.24 116.429 28.704 115.917 28.032C115.421 27.36 115.149 26.616 115.101 25.8H118.485C118.549 26.312 118.797 26.736 119.229 27.072C119.677 27.408 120.229 27.576 120.885 27.576C121.525 27.576 122.021 27.448 122.373 27.192C122.741 26.936 122.925 26.608 122.925 26.208C122.925 25.776 122.701 25.456 122.253 25.248C121.821 25.024 121.125 24.784 120.165 24.528C119.173 24.288 118.357 24.04 117.717 23.784C117.093 23.528 116.549 23.136 116.085 22.608C115.637 22.08 115.413 21.368 115.413 20.472C115.413 19.736 115.621 19.064 116.037 18.456C116.469 17.848 117.077 17.368 117.861 17.016C118.661 16.664 119.597 16.488 120.669 16.488C122.253 16.488 123.517 16.888 124.461 17.688C125.405 18.472 125.925 19.536 126.021 20.88H122.805C122.757 20.352 122.533 19.936 122.133 19.632C121.749 19.312 121.229 19.152 120.573 19.152C119.965 19.152 119.493 19.264 119.157 19.488C118.837 19.712 118.677 20.024 118.677 20.424C118.677 20.872 118.901 21.216 119.349 21.456C119.797 21.68 120.493 21.912 121.437 22.152C122.397 22.392 123.189 22.64 123.813 22.896C124.437 23.152 124.973 23.552 125.421 24.096C125.885 24.624 126.125 25.328 126.141 26.208C126.141 26.976 125.925 27.664 125.493 28.272C125.077 28.88 124.469 29.36 123.669 29.712C122.885 30.048 121.965 30.216 120.909 30.216Z" fill="#6F15EA"/>
<path d="M0 16C0 7.16344 7.16344 0 16 0H37C45.8366 0 53 7.16344 53 16V32H16C7.16344 32 0 24.8366 0 16Z" fill="#6F15EA"/>
<path d="M37 6H16C10.4772 6 6 10.4772 6 16C6 21.5228 10.4772 26 16 26H37C42.5228 26 47 21.5228 47 16C47 10.4772 42.5228 6 37 6Z" fill="#8A6DFE"/>
<path d="M16 21C18.7614 21 21 18.7614 21 16C21 13.2386 18.7614 11 16 11C13.2386 11 11 13.2386 11 16C11 18.7614 13.2386 21 16 21Z" fill="black"/>
<path d="M14 15C14.5523 15 15 14.5523 15 14C15 13.4477 14.5523 13 14 13C13.4477 13 13 13.4477 13 14C13 14.5523 13.4477 15 14 15Z" fill="white"/>
<path d="M38 21C40.7614 21 43 18.7614 43 16C43 13.2386 40.7614 11 38 11C35.2386 11 33 13.2386 33 16C33 18.7614 35.2386 21 38 21Z" fill="black"/>
<path d="M36 15C36.5523 15 37 14.5523 37 14C37 13.4477 36.5523 13 36 13C35.4477 13 35 13.4477 35 14C35 14.5523 35.4477 15 36 15Z" fill="white"/>
</g>
<defs>
<clipPath id="clip0_1_31">
<rect width="171" height="32" fill="white"/>
</clipPath>
</defs>
</svg>
